<svg xmlns="http://www.w3.org/2000/svg" viewBox="0 0 874.63 751.59">
  <defs>
    <style>
      .cls-1 {
        fill: #000b99;
        stroke: #fff;
        stroke-miterlimit: 10;
      }

      .cls-2, .cls-3 {
        fill: #fff;
      }

      .cls-3 {
        font-size: 71.81px;
        font-family: BritannicBold, Britannic Bold;
      }
    </style>
  </defs>
  <title>dcsLogo2</title>
  <g id="Layer_2" data-name="Layer 2">
    <polygon class="cls-1" points="115.86 467.94 409.08 227.39 490.46 292.02 654.42 154.38 733.4 220.21 733.4 199.86 796.83 198.67 796.83 271.67 865.05 326.72 824.36 375.79 654.42 235.77 540.72 331.51 704.68 467.94 652.02 533.77 409.08 335.1 169.72 533.77 115.86 467.94"/>
  </g>
  <g id="Layer_4" data-name="Layer 4">
    <g>
      <path class="cls-1" d="M891.23,571.46s-16.38,3.67-14.67,14.18l19.31,111.71S942.8,725.21,989,700l20.53-116.83s1.71-9.05-14.18-11.74C995.35,571.46,935.71,558.75,891.23,571.46Z" transform="translate(-240.87 -8)"/>
      <path class="cls-1" d="M882.18,586.37s53.29,23.47,121.24,0" transform="translate(-240.87 -8)"/>
    </g>
  </g>
  <g id="Layer_5" data-name="Layer 5">
    <g>
      <g>
        <path class="cls-2" d="M1015,173.85a35.4,35.4,0,1,1,35.4-35.4A35.44,35.44,0,0,1,1015,173.85Z" transform="translate(-240.87 -8)"/>
        <path d="M1015,103.55a34.9,34.9,0,1,1-34.9,34.9,34.93,34.93,0,0,1,34.9-34.9m0-1a35.9,35.9,0,1,0,35.9,35.9,35.9,35.9,0,0,0-35.9-35.9Z" transform="translate(-240.87 -8)"/>
      </g>
      <g>
        <circle class="cls-2" cx="847.7" cy="89.16" r="26.43"/>
        <path d="M1088.57,71.23a25.93,25.93,0,1,1-25.93,25.93,26,26,0,0,1,25.93-25.93m0-1a26.93,26.93,0,1,0,26.93,26.93,26.93,26.93,0,0,0-26.93-26.93Z" transform="translate(-240.87 -8)"/>
      </g>
      <g>
        <path class="cls-2" d="M1065.83,47a14.46,14.46,0,1,1,14.46-14.46A14.47,14.47,0,0,1,1065.83,47Z" transform="translate(-240.87 -8)"/>
        <path d="M1065.83,18.57a14,14,0,1,1-14,14,14,14,0,0,1,14-14m0-1a15,15,0,1,0,15,15,15,15,0,0,0-15-15Z" transform="translate(-240.87 -8)"/>
      </g>
      <g>
        <path class="cls-2" d="M1022.75,23.06a7.28,7.28,0,1,1,7.28-7.28A7.29,7.29,0,0,1,1022.75,23.06Z" transform="translate(-240.87 -8)"/>
        <path d="M1022.75,9a6.78,6.78,0,1,1-6.78,6.78A6.79,6.79,0,0,1,1022.75,9m0-1a7.78,7.78,0,1,0,7.78,7.78A7.78,7.78,0,0,0,1022.75,8Z" transform="translate(-240.87 -8)"/>
      </g>
    </g>
  </g>
  <g id="Layer_7" data-name="Layer 7">
    <path class="cls-1" d="M755.22,648.76s30.77,14,36.07,34c0,0-11.27-8.3-18.51-3.21,0,0,1.8,11.45,5.78,17.71s31.22,46.75,57.78,57.43,82.35,5.15,73.84-54.44-5.31-26.86-5.31-43.61l-.26,0s.7-5.31-2.76-6.76L1045.51,334.2s1.12,1,3.94-.89l17.39-36.46s1-20.46-17.07-10.24L1032,323.93s-1.46,3.46,2.61,4.67L889.13,645.08a20,20,0,0,0-9.65,13.24s-4.6-6-21.94-1.09c0,0-22.35,12-33.09,8.46,0,0-7.9-1.79-11-7.69,0,0-18.95-16.64-23-17.85S767.53,628,755.22,648.76Z" transform="translate(-240.87 -8)"/>
    <text class="cls-3" transform="translate(0 587.46)">Diginified Cleaning <tspan x="146.84" y="86.17">&amp; Services</tspan></text>
  </g>
</svg>
